<?xml version="1.0" standalone="no"?>
<!DOCTYPE svg PUBLIC "-//W3C//DTD SVG 20010904//EN"
 "http://www.w3.org/TR/2001/REC-SVG-20010904/DTD/svg10.dtd">
<svg version="1.0" xmlns="http://www.w3.org/2000/svg"
 width="1998.000000pt" height="1998.000000pt" viewBox="0 0 1998.000000 1998.000000"
 preserveAspectRatio="xMidYMid meet">
<metadata>
Created by potrace 1.11, written by Peter Selinger 2001-2013
</metadata>
<g transform="translate(0.000000,1998.000000) scale(0.100000,-0.100000)"
fill="#000000" stroke="none">
<path d="M13138 18720 c-278 -48 -517 -229 -635 -480 -57 -120 -82 -238 -81
-379 2 -209 84 -415 232 -578 38 -42 44 -53 29 -54 -109 -4 -303 -62 -423
-126 -198 -107 -300 -223 -503 -572 -106 -184 -260 -521 -282 -621 -2 -8 -9
-31 -15 -50 -6 -19 -13 -46 -16 -60 -3 -14 -9 -41 -14 -60 -11 -43 -19 -86
-30 -170 -9 -69 -6 -285 4 -335 29 -134 81 -260 142 -346 l35 -47 -58 -7
c-104 -11 -137 -15 -183 -20 -42 -5 -165 -22 -220 -30 -46 -7 -155 -25 -180
-29 -14 -3 -41 -7 -60 -10 -19 -3 -102 -19 -185 -36 -82 -17 -161 -33 -175
-36 -22 -5 -84 -18 -130 -29 -8 -2 -62 -16 -120 -30 -58 -15 -112 -28 -120
-30 -18 -4 -257 -71 -320 -90 -25 -7 -85 -25 -135 -40 -85 -25 -478 -157 -610
-205 -71 -26 -449 -176 -550 -218 -72 -31 -217 -97 -294 -135 -82 -41 -130
-123 -126 -215 5 -143 129 -246 272 -227 83 11 116 16 175 26 32 5 79 12 105
15 27 2 104 13 173 24 69 10 148 22 175 25 28 3 102 12 165 20 133 16 197 24
260 30 25 2 66 7 93 10 135 15 192 20 322 30 44 3 96 8 115 10 19 2 87 7 150
10 63 4 131 8 150 10 19 2 123 6 230 10 377 14 821 6 1085 -19 28 -3 79 -7
115 -11 36 -3 81 -8 100 -10 19 -3 51 -7 70 -9 82 -10 328 -53 380 -66 19 -5
49 -11 65 -14 111 -20 369 -101 515 -163 430 -183 703 -436 849 -788 36 -86
109 -299 122 -355 4 -19 19 -82 33 -140 33 -137 37 -162 61 -350 12 -103 13
-472 1 -535 -7 -35 -13 -73 -21 -130 -30 -203 -152 -512 -282 -708 -101 -154
-276 -345 -429 -469 -98 -79 -301 -213 -413 -273 -98 -52 -141 -87 -167 -137
-50 -96 -27 -217 53 -287 49 -43 97 -59 174 -55 47 2 224 38 269 55 14 5 35
10 47 12 12 2 26 6 29 10 4 4 14 7 21 7 20 0 196 67 273 103 553 263 991 669
1385 1286 71 111 186 333 252 484 90 211 190 511 219 662 2 11 8 43 14 70 5
28 11 61 14 75 2 14 7 41 10 60 3 19 8 48 10 63 7 43 19 159 20 190 1 34 7 34
37 -2 33 -40 75 -63 214 -116 66 -25 129 -49 140 -54 11 -5 74 -30 140 -57
184 -73 424 -186 522 -244 239 -143 637 -428 893 -640 69 -57 130 -109 136
-114 6 -6 42 -38 80 -71 104 -91 292 -273 379 -369 72 -78 185 -236 185 -256
0 -5 9 -25 19 -43 l19 -34 -71 -44 c-40 -24 -81 -49 -92 -55 -11 -6 -51 -29
-90 -52 -38 -22 -95 -54 -125 -71 -72 -41 -489 -249 -560 -280 -600 -260
-1071 -425 -1730 -604 -121 -33 -495 -126 -535 -133 -16 -2 -38 -7 -47 -10 -9
-3 -27 -7 -40 -9 -13 -3 -34 -7 -48 -10 -14 -3 -34 -7 -45 -10 -157 -33 -445
-90 -535 -105 -63 -11 -128 -22 -145 -25 -16 -3 -41 -8 -55 -10 -50 -10 -66
-13 -145 -25 -44 -7 -87 -13 -95 -15 -8 -1 -36 -5 -61 -9 -25 -4 -57 -9 -70
-11 -13 -2 -78 -11 -144 -21 -149 -20 -148 -20 -215 -28 -51 -6 -101 -13 -160
-21 -14 -2 -52 -7 -85 -10 -33 -3 -73 -8 -90 -10 -16 -2 -57 -7 -90 -10 -33
-4 -76 -8 -95 -10 -19 -2 -66 -7 -105 -10 -38 -3 -81 -8 -95 -10 -14 -2 -65
-7 -115 -10 -49 -4 -108 -9 -130 -10 -22 -2 -76 -6 -120 -9 -255 -18 -261 -19
-306 -42 -24 -12 -33 -8 -150 71 -68 47 -131 89 -139 95 -69 45 -99 65 -195
131 -299 204 -692 467 -710 474 -64 25 -168 7 -231 -41 -38 -29 -84 -111 -84
-150 0 -28 -14 -39 -157 -123 l-121 -72 -64 34 c-34 19 -162 90 -283 158 -121
67 -240 128 -264 134 -58 15 -109 5 -207 -41 -106 -48 -191 -88 -266 -123 -35
-16 -103 -48 -153 -71 -49 -23 -216 -101 -370 -172 -154 -72 -318 -148 -365
-170 -315 -147 -298 -140 -332 -129 -35 10 -79 16 -193 26 -38 3 -88 8 -110
10 -22 2 -69 7 -105 10 -36 3 -83 8 -105 11 -86 11 -112 13 -170 19 -92 9
-340 40 -395 50 -22 3 -98 13 -170 20 -14 1 -56 7 -95 13 -38 6 -95 14 -125
17 -30 3 -71 8 -90 11 -153 24 -289 46 -310 50 -14 2 -43 7 -65 10 -22 4 -71
12 -110 19 -38 8 -72 12 -76 9 -4 -2 -20 1 -34 6 -26 10 -47 13 -160 25 -281
31 -616 103 -1000 217 -184 54 -492 157 -620 207 -44 17 -84 31 -90 31 -5 0
-21 6 -35 13 -14 7 -47 21 -75 31 -27 10 -63 24 -80 31 -16 7 -77 32 -135 55
-133 54 -364 153 -455 195 -38 18 -92 43 -120 55 -76 34 -518 254 -620 308
-140 75 -460 256 -474 268 -2 2 9 18 23 35 15 18 41 60 58 94 94 194 465 568
899 907 18 15 68 53 109 86 167 130 425 310 617 430 126 79 403 210 643 303
41 16 84 33 95 38 11 5 71 28 134 52 130 50 180 81 217 141 35 55 45 158 20
206 -22 43 -20 59 10 66 105 27 187 145 177 256 -13 139 -100 212 -253 214
-64 1 -70 5 -18 13 70 10 126 50 169 120 20 31 24 51 24 113 -1 54 -6 82 -18
102 -17 25 -17 27 0 32 10 3 45 8 78 12 68 7 120 26 151 55 21 20 21 20 110 0
75 -16 170 -33 314 -56 14 -2 56 -7 93 -10 38 -3 83 -8 100 -10 51 -7 243 -17
357 -18 l105 -2 1 -122 c2 -131 12 -402 19 -468 2 -22 7 -71 10 -110 7 -73 9
-96 20 -180 4 -27 9 -63 11 -78 8 -64 15 -113 19 -127 2 -8 7 -35 10 -60 12
-85 65 -335 100 -470 20 -74 38 -145 40 -157 20 -87 171 -518 220 -628 13 -27
33 -75 46 -105 42 -101 205 -414 277 -531 255 -416 533 -728 872 -978 196
-145 319 -167 447 -79 65 44 96 105 100 197 4 87 -12 142 -112 366 -89 202
-217 551 -270 740 -8 28 -24 82 -35 120 -25 85 -79 290 -86 325 -3 14 -11 50
-19 80 -13 55 -60 279 -69 335 -3 17 -10 55 -16 85 -6 30 -13 73 -15 95 -3 22
-7 51 -10 65 -13 63 -50 381 -60 515 -25 309 -25 801 -1 1055 19 188 17 179
30 275 12 85 23 157 42 270 38 229 107 504 192 760 20 61 37 112 37 115 1 3 5
12 8 20 3 8 24 62 46 120 89 235 245 565 365 772 31 54 56 102 56 107 0 5 3
11 8 13 6 2 57 82 107 166 68 115 317 453 451 612 275 327 522 569 909 889 50
41 231 174 342 251 174 120 283 189 475 299 239 137 281 183 282 311 2 116
-71 210 -187 241 -42 11 -224 8 -297 -6 -330 -60 -773 -179 -990 -265 -25 -10
-83 -32 -130 -50 -249 -95 -481 -203 -724 -339 -60 -34 -113 -61 -117 -61 -4
0 -9 -3 -11 -7 -1 -5 -15 -15 -30 -23 -31 -17 -130 -78 -163 -100 -12 -8 -49
-33 -81 -54 -124 -81 -390 -287 -493 -380 -80 -72 -372 -367 -428 -431 -337
-389 -590 -814 -793 -1331 -35 -87 -66 -168 -71 -179 -48 -122 -149 -482 -195
-690 -34 -155 -31 -142 -39 -201 l-7 -50 -111 23 c-62 13 -130 33 -152 44
-118 60 -247 259 -291 445 -31 134 -15 328 42 524 40 135 136 376 186 465 6
10 30 55 53 100 98 188 276 466 438 684 78 105 263 340 281 356 6 6 40 44 76
85 144 167 313 337 480 483 151 131 206 189 236 249 81 159 -25 340 -206 351
-58 4 -101 -6 -219 -50 -233 -87 -549 -243 -811 -401 -164 -99 -520 -342 -560
-382 -3 -3 -39 -32 -80 -65 -41 -33 -77 -62 -80 -65 -3 -3 -36 -32 -75 -65
-78 -67 -207 -188 -238 -222 -12 -13 -23 -23 -26 -23 -3 0 -7 51 -8 113 -5
270 -134 512 -360 673 -141 102 -316 157 -493 155 -58 0 -112 -2 -120 -4 -8
-2 -33 -7 -55 -11 -160 -30 -333 -127 -453 -255 -103 -110 -188 -275 -217
-424 -19 -103 -12 -291 15 -387 42 -148 129 -293 237 -396 49 -46 202 -154
220 -154 5 0 28 -9 50 -20 36 -17 65 -26 148 -45 106 -25 270 -22 366 5 58 17
60 12 24 -42 -120 -183 -284 -486 -365 -673 -23 -55 -50 -118 -60 -140 -10
-22 -36 -94 -58 -160 -167 -500 -115 -860 164 -1141 l53 -54 -37 -1 c-20 0
-44 -2 -52 -4 -9 -1 -61 -6 -117 -9 -56 -4 -112 -9 -125 -11 -12 -2 -57 -6
-98 -10 -41 -4 -86 -8 -100 -10 -34 -4 -111 -14 -163 -20 -23 -3 -51 -7 -63
-9 -12 -2 -45 -7 -74 -11 -29 -4 -62 -9 -74 -11 -12 -2 -46 -8 -76 -14 -164
-28 -248 -44 -365 -72 -71 -16 -137 -31 -146 -33 -41 -8 -254 -70 -354 -102
-306 -99 -734 -294 -1000 -455 -49 -30 -101 -61 -115 -69 -14 -7 -27 -16 -30
-19 -3 -3 -38 -27 -78 -54 -229 -153 -434 -347 -604 -572 -232 -306 -361 -543
-421 -773 l-22 -86 0 -1465 c0 -806 3 -1492 7 -1525 6 -51 21 -128 44 -235 17
-81 81 -251 140 -375 43 -91 174 -308 220 -364 7 -9 30 -39 51 -67 93 -125
321 -364 472 -494 201 -174 554 -422 766 -538 130 -72 656 -332 670 -332 2 0
45 -20 97 -44 181 -85 235 -109 478 -212 135 -58 254 -109 265 -114 86 -40
535 -209 730 -275 76 -25 143 -49 147 -51 5 -3 -112 -88 -259 -189 -148 -102
-275 -189 -283 -195 -8 -6 -213 -147 -455 -313 -242 -166 -485 -334 -540 -372
-120 -82 -187 -128 -320 -220 -170 -116 -199 -154 -199 -265 0 -104 -2 -102
270 -356 71 -67 145 -136 164 -154 19 -18 91 -85 160 -150 69 -64 141 -132
160 -150 75 -69 278 -258 345 -321 38 -37 86 -81 105 -99 44 -41 262 -245 305
-285 17 -16 89 -84 160 -150 71 -66 143 -133 161 -150 34 -33 262 -247 309
-289 17 -15 83 -78 149 -139 65 -62 133 -125 150 -140 106 -97 238 -95 347 5
104 94 216 197 249 228 20 19 74 68 118 108 44 40 96 88 115 105 18 18 76 70
127 117 51 47 105 96 120 110 44 41 232 213 256 235 52 47 208 191 218 200 6
6 67 62 136 125 69 63 130 119 136 125 12 12 184 169 223 204 14 13 55 51 91
84 36 33 88 80 115 105 28 25 66 61 86 79 l35 33 0 -1018 0 -1019 28 -56 c30
-62 84 -107 147 -125 19 -5 174 -10 345 -10 346 -1 386 4 447 60 63 59 80 107
81 223 l1 103 40 -22 c37 -19 57 -21 270 -23 230 -3 292 4 323 34 7 7 15 13
17 13 2 0 4 -44 4 -98 0 -144 35 -211 136 -266 39 -20 51 -21 390 -21 l350 0
47 28 c92 54 120 111 124 257 1 58 3 111 3 119 1 8 7 11 19 6 92 -36 289 -66
452 -69 l85 -1 5 -85 c6 -96 24 -145 70 -188 70 -68 64 -67 495 -68 440 -2
456 0 526 65 52 50 75 113 74 208 l-1 69 76 0 c118 1 237 13 335 34 116 26
109 24 190 55 190 71 354 195 473 357 24 32 44 58 45 58 1 0 2 -143 2 -317 -1
-320 2 -354 38 -420 19 -35 83 -83 134 -101 50 -17 716 -13 768 5 56 19 110
70 136 129 22 49 22 51 23 744 l1 695 189 2 c112 1 203 7 225 14 58 19 108 60
138 114 l27 50 1 278 c1 197 -2 288 -11 313 -19 56 -65 106 -123 136 l-54 28
-881 0 -881 0 -51 34 c-97 64 -267 139 -364 160 -14 3 -54 12 -90 20 -82 18
-130 24 -244 32 -50 4 -93 8 -96 11 -3 2 -5 17 -6 31 -3 78 -54 156 -128 195
-38 20 -57 22 -270 25 l-230 3 160 79 c309 152 882 433 1093 537 l214 105 56
-27 c53 -27 59 -27 166 -21 60 3 121 8 135 10 14 2 52 7 85 10 33 3 89 9 125
12 36 3 83 12 104 20 22 7 45 10 51 6 6 -4 161 -122 344 -262 183 -140 370
-283 415 -317 44 -35 86 -66 91 -70 22 -17 185 -143 270 -208 50 -38 144 -110
210 -159 66 -50 122 -93 125 -96 3 -3 100 -78 215 -166 365 -279 413 -315 752
-575 294 -226 453 -347 996 -762 78 -60 151 -116 162 -125 57 -48 128 -94 157
-103 79 -25 176 -4 231 49 16 15 82 106 147 202 65 96 182 271 261 387 79 117
215 317 301 445 87 128 194 287 239 353 44 66 89 137 100 157 37 73 27 174
-24 241 -19 26 -234 180 -335 242 -20 12 -107 71 -552 370 -723 486 -1141 766
-1249 839 -63 42 -112 76 -109 76 29 0 673 194 873 264 621 215 1336 543 1775
815 45 28 84 51 86 51 9 0 294 196 389 268 302 228 565 489 754 747 28 39 54
75 59 80 4 6 35 55 69 111 176 292 263 566 289 909 2 33 6 78 9 100 21 210 28
1205 12 1710 -10 332 -18 617 -21 830 -2 103 -8 199 -16 225 -63 228 -287 621
-511 896 -180 221 -466 445 -834 651 -200 113 -594 288 -825 368 -108 37 -314
98 -367 110 -10 2 -54 13 -98 24 -44 11 -91 22 -105 25 -14 3 -68 14 -120 25
-116 25 -385 71 -505 86 -11 2 -44 6 -74 10 -30 4 -61 8 -70 10 -9 1 -47 6
-86 9 -38 4 -86 9 -105 11 -19 2 -73 7 -120 10 -47 4 -93 9 -103 11 -45 8
-359 18 -602 19 l-270 0 -47 -27 c-25 -16 -58 -42 -72 -60 -14 -18 -27 -30
-29 -28 -2 3 -19 25 -38 50 -83 110 -270 286 -404 382 -83 59 -178 122 -205
136 -14 7 -41 22 -60 33 -51 31 -233 122 -320 159 -217 95 -589 209 -790 244
-19 3 -46 8 -60 11 -31 6 -142 24 -193 32 -21 3 -46 6 -55 8 -9 2 -23 4 -31 4
-9 1 -11 7 -6 19 50 116 62 245 31 333 -19 56 -14 78 50 198 77 146 252 363
338 419 22 15 43 29 46 32 11 13 181 90 260 119 144 52 386 119 490 136 19 3
58 10 85 15 28 5 64 11 80 14 17 2 55 9 85 15 30 6 71 13 90 16 76 12 162 28
335 60 99 18 194 35 210 38 17 3 57 10 90 16 33 6 71 12 85 15 14 2 52 9 85
15 33 6 74 14 90 16 63 12 226 42 265 50 14 2 39 7 55 10 43 7 282 51 410 75
61 11 124 23 140 26 17 3 86 16 155 29 69 13 150 28 180 34 114 21 661 127
700 136 8 2 62 13 120 25 308 63 383 91 464 173 84 83 103 179 57 282 -25 55
-60 88 -131 123 -70 34 -30 33 -1225 7 -379 -8 -1101 -20 -1835 -30 -726 -10
-760 -11 -760 -8 0 1 15 18 34 38 102 107 168 224 211 371 21 70 27 112 28
199 2 135 -6 196 -38 292 -23 67 -80 190 -95 203 -3 3 -13 17 -22 31 -60 94
-196 208 -324 273 -144 72 -358 103 -516 76z m2150 -5336 c2 -1 -3 -13 -12
-26 -9 -14 -17 -36 -18 -51 -1 -15 -5 -27 -9 -27 -5 0 -49 103 -49 115 0 4 83
-6 88 -11z m63 -327 c3 -5 32 -17 65 -27 55 -17 56 -19 24 -20 -19 0 -51 -3
-71 -6 -42 -6 -45 -3 -58 55 l-9 42 21 -18 c12 -10 25 -22 28 -26z m-6660
-8346 c167 -81 392 -192 499 -246 181 -90 200 -98 265 -102 72 -4 93 4 190 71
18 12 29 9 106 -28 89 -43 216 -102 357 -168 45 -21 91 -38 102 -38 11 0 20
-2 20 -4 0 -2 -13 -30 -30 -61 -16 -31 -30 -72 -30 -91 0 -19 -6 -36 -12 -39
-7 -2 -52 -6 -100 -9 -94 -6 -136 -12 -214 -27 -28 -5 -64 -12 -80 -15 -98
-17 -296 -102 -394 -168 l-45 -31 -300 -5 -300 -5 -45 -27 c-42 -26 -100 -81
-180 -173 -61 -70 -132 -167 -208 -283 l-61 -92 -67 102 c-142 219 -314 415
-398 454 -47 22 -60 23 -315 24 -146 0 -266 2 -268 4 -4 3 24 33 68 71 33 28
237 214 269 245 9 8 63 58 120 110 102 93 202 185 245 225 12 11 64 58 115
105 51 47 107 98 124 114 17 16 69 63 115 105 46 42 95 88 110 103 14 15 29
27 32 28 4 0 143 -67 310 -149z m1478 -1936 c0 -221 1 -216 -54 -195 -39 15
-58 70 -58 176 -1 111 20 176 67 205 17 10 34 19 38 19 4 0 7 -92 7 -205z
m1230 166 c36 -38 49 -85 49 -176 0 -86 -13 -148 -37 -169 -19 -18 -71 -32
-72 -20 -1 5 -2 96 -3 202 -1 181 0 192 17 192 11 0 31 -13 46 -29z"/>
</g>
</svg>
